<svg width="163" height="28" viewBox="0 0 163 28" fill="currentColor" xmlns="http://www.w3.org/2000/svg">
<path d="M30.2461 8.54297C30.2109 8.70703 30.1348 8.83594 30.0176 8.92969C29.9004 9.02344 29.7715 9.07031 29.6309 9.07031C29.4199 9.07031 29.25 9.00586 29.1211 8.87695C28.9922 8.73633 28.9277 8.57812 28.9277 8.40234C28.9277 8.22656 28.9453 8.05664 28.9805 7.89258C29.0156 7.7168 29.0332 7.54687 29.0332 7.38281C29.0332 6.52734 28.7695 5.75977 28.2422 5.08008C27.7148 4.40039 26.9648 3.83203 25.9922 3.375C25.0312 2.90625 23.8594 2.54883 22.4766 2.30273C21.0938 2.05664 19.5527 1.93359 17.8535 1.93359C16.5527 1.93359 15.2402 2.02148 13.916 2.19727C12.6035 2.36133 11.3379 2.60742 10.1191 2.93555C8.91211 3.25195 7.78125 3.65625 6.72656 4.14844C5.67188 4.62891 4.75195 5.19141 3.9668 5.83594C3.19336 6.46875 2.58398 7.17773 2.13867 7.96289C1.69336 8.73633 1.4707 9.58594 1.4707 10.5117C1.4707 11.2266 1.62305 11.8594 1.92773 12.4102C2.24414 12.9492 2.67188 13.4238 3.21094 13.834C3.75 14.2324 4.38281 14.5781 5.10938 14.8711C5.84766 15.1523 6.64453 15.3926 7.5 15.5918C8.35547 15.7793 9.24609 15.9375 10.1719 16.0664C11.0977 16.1836 12.0293 16.2832 12.9668 16.3652L15.6738 16.5938C17.0215 16.7109 18.2285 16.834 19.2949 16.9629C20.3613 17.0918 21.2988 17.2559 22.1074 17.4551C23.4551 17.7949 24.4512 18.2812 25.0957 18.9141C25.7402 19.5469 26.0625 20.3906 26.0625 21.4453C26.0625 22.4648 25.7812 23.3613 25.2188 24.1348C24.6562 24.9082 23.8887 25.5586 22.916 26.0859C21.9434 26.6133 20.8066 27.0117 19.5059 27.2812C18.2051 27.5508 16.8105 27.6855 15.3223 27.6855C13.7051 27.6855 12.2812 27.5742 11.0508 27.3516C9.83203 27.1406 8.80664 26.9062 7.97461 26.6484C7.1543 26.3789 6.52734 26.1328 6.09375 25.9102C5.66016 25.6875 5.42578 25.5645 5.39062 25.541C5.17969 25.4238 5.07422 25.2363 5.07422 24.9785C5.07422 24.7793 5.14453 24.6211 5.28516 24.5039C5.42578 24.375 5.57812 24.3105 5.74219 24.3105C5.87109 24.3105 5.98828 24.3457 6.09375 24.416C6.10547 24.416 6.30469 24.5215 6.69141 24.7324C7.08984 24.9316 7.67578 25.1543 8.44922 25.4004C9.23438 25.6465 10.2012 25.8691 11.3496 26.0684C12.498 26.2676 13.834 26.3672 15.3574 26.3672C16.8691 26.3672 18.2051 26.2441 19.3652 25.998C20.5254 25.752 21.498 25.4121 22.2832 24.9785C23.0801 24.5332 23.6777 24.0176 24.0762 23.4316C24.4863 22.834 24.6914 22.1895 24.6914 21.498C24.6914 21.0879 24.6152 20.7363 24.4629 20.4434C24.3223 20.1387 24.123 19.8809 23.8652 19.6699C23.6074 19.4473 23.2969 19.2598 22.9336 19.1074C22.582 18.9551 22.1953 18.8262 21.7734 18.7207C21.3281 18.6035 20.8477 18.5039 20.332 18.4219C19.8281 18.3398 19.3066 18.2695 18.7676 18.2109C18.2285 18.1523 17.6836 18.0996 17.1328 18.0527C16.5938 18.0059 16.0605 17.959 15.5332 17.9121L12.8262 17.6836C10.6934 17.5078 8.83008 17.2383 7.23633 16.875C5.6543 16.5 4.33594 16.0254 3.28125 15.4512C2.22656 14.8652 1.43555 14.168 0.908203 13.3594C0.380859 12.5508 0.117188 11.6074 0.117188 10.5293C0.117188 9.42773 0.363281 8.41992 0.855469 7.50586C1.35938 6.58008 2.03906 5.74805 2.89453 5.00977C3.76172 4.27148 4.76953 3.63281 5.91797 3.09375C7.07812 2.54297 8.31445 2.08594 9.62695 1.72266C10.9395 1.35937 12.2988 1.08984 13.7051 0.914062C15.1113 0.726562 16.4941 0.632812 17.8535 0.632812C19.5527 0.632812 21.0293 0.738281 22.2832 0.949219C23.5488 1.14844 24.627 1.41211 25.5176 1.74023C26.4199 2.05664 27.1582 2.41992 27.7324 2.83008C28.3066 3.24023 28.7695 3.64453 29.1211 4.04297C29.9531 5.01562 30.3691 6.12305 30.3691 7.36523C30.3691 7.77539 30.3281 8.16797 30.2461 8.54297ZM36.6973 25.0664C36.4043 25.0664 36.1465 25.043 35.9238 24.9961C35.748 25.3477 35.5371 25.6758 35.291 25.9805C35.0449 26.2734 34.7578 26.5312 34.4297 26.7539C34.1133 26.9766 33.7559 27.1523 33.3574 27.2812C32.959 27.4102 32.5254 27.4746 32.0566 27.4746C31.5059 27.4746 31.002 27.375 30.5449 27.1758C30.0879 26.9883 29.6895 26.7246 29.3496 26.3848C29.0098 26.0332 28.7461 25.6172 28.5586 25.1367C28.3711 24.6445 28.2773 24.1055 28.2773 23.5195C28.2773 22.7695 28.4121 22.1191 28.6816 21.5684C28.9512 21.0059 29.2617 20.543 29.6133 20.1797C29.9648 19.8047 30.3164 19.5293 30.668 19.3535C31.0195 19.166 31.2832 19.0723 31.459 19.0723C31.6582 19.0723 31.8047 19.125 31.8984 19.2305C32.0039 19.3359 32.0566 19.4766 32.0566 19.6523C32.0566 19.8516 31.9922 20.0039 31.8633 20.1094C31.7461 20.2031 31.5938 20.2969 31.4062 20.3906C31.2188 20.4844 31.0195 20.6191 30.8086 20.7949C30.5977 20.959 30.3984 21.1699 30.2109 21.4277C30.0352 21.6855 29.8887 21.9902 29.7715 22.3418C29.6543 22.6934 29.5957 23.0859 29.5957 23.5195C29.5957 23.9062 29.6543 24.2695 29.7715 24.6094C29.8887 24.9375 30.0586 25.2246 30.2812 25.4707C30.5039 25.7051 30.7676 25.8926 31.0723 26.0332C31.377 26.1621 31.7168 26.2266 32.0918 26.2266C32.7598 26.2266 33.3105 26.0742 33.7441 25.7695C34.1895 25.4531 34.5293 25.0547 34.7637 24.5742C34.0723 24.2109 33.5039 23.6953 33.0586 23.0273C32.6133 22.3594 32.3906 21.6094 32.3906 20.7773C32.3906 20.1094 32.5488 19.5645 32.8652 19.1426C33.1934 18.7207 33.6211 18.5098 34.1484 18.5098C34.4648 18.5098 34.7637 18.5859 35.0449 18.7383C35.3262 18.8906 35.5723 19.1309 35.7832 19.459C36.0059 19.7871 36.1816 20.209 36.3105 20.7246C36.4395 21.2402 36.5039 21.8555 36.5039 22.5703C36.5039 22.9453 36.457 23.3379 36.3633 23.748C36.4336 23.7598 36.5039 23.7656 36.5742 23.7656C36.6445 23.7656 36.7207 23.7656 36.8027 23.7656C37.2012 23.7656 37.5586 23.7188 37.875 23.625C38.1914 23.5312 38.4785 23.3906 38.7363 23.2031C38.9941 23.0156 39.2227 22.7754 39.4219 22.4824C39.6328 22.1895 39.832 21.8496 40.0195 21.4629C40.0547 21.3926 40.1309 21.3281 40.248 21.2695C40.3652 21.1992 40.4824 21.1641 40.5996 21.1641C40.752 21.1641 40.8926 21.2285 41.0215 21.3574C41.1621 21.4746 41.2324 21.6328 41.2324 21.832C41.2324 21.9258 41.209 22.0312 41.1621 22.1484C41.1152 22.2539 41.0684 22.3535 41.0215 22.4473C40.8223 22.7988 40.5879 23.1387 40.3184 23.4668C40.0605 23.7832 39.75 24.0645 39.3867 24.3105C39.0352 24.5449 38.6367 24.7324 38.1914 24.873C37.7461 25.0137 37.248 25.0781 36.6973 25.0664ZM33.6914 20.6367C33.6914 20.8594 33.7207 21.0938 33.7793 21.3398C33.8379 21.5859 33.9258 21.832 34.043 22.0781C34.1719 22.3125 34.3242 22.541 34.5 22.7637C34.6875 22.9746 34.9043 23.1562 35.1504 23.3086C35.1855 23.0625 35.2031 22.8223 35.2031 22.5879C35.2031 22.2715 35.1797 21.9492 35.1328 21.6211C35.0859 21.293 35.0156 20.9941 34.9219 20.7246C34.8398 20.4434 34.7344 20.2207 34.6055 20.0566C34.4766 19.8809 34.3242 19.793 34.1484 19.793C34.0781 19.793 33.9844 19.8457 33.8672 19.9512C33.75 20.0566 33.6914 20.2852 33.6914 20.6367ZM63.6797 1.14258C65.1211 1.14258 66.5918 1.27734 68.0918 1.54688C69.5918 1.80469 71.0508 2.20312 72.4688 2.74219C73.8867 3.28125 75.2227 3.96094 76.4766 4.78125C77.7305 5.58984 78.8262 6.53906 79.7637 7.62891C80.7012 8.71875 81.4395 9.94922 81.9785 11.3203C82.5293 12.6914 82.8047 14.209 82.8047 15.873C82.8047 17.5371 82.5117 19.0781 81.9258 20.4961C81.3398 21.9141 80.5195 23.1387 79.4648 24.1699C78.4102 25.2012 77.1504 26.0098 75.6855 26.5957C74.2207 27.1816 72.6094 27.4746 70.8516 27.4746C70.0195 27.4746 69.1582 27.4102 68.2676 27.2812C67.377 27.1641 66.4863 26.9766 65.5957 26.7188C64.7051 26.4609 63.8262 26.1445 62.959 25.7695C62.1035 25.3828 61.2832 24.9258 60.498 24.3984C59.5723 25.3125 58.5 26.0273 57.2812 26.543C56.0742 27.0469 54.7969 27.2988 53.4492 27.2988C52.7227 27.2988 52.043 27.2168 51.4102 27.0527C50.7773 26.8887 50.2266 26.6543 49.7578 26.3496C49.3008 26.0449 48.9375 25.6758 48.668 25.2422C48.4102 24.8086 48.2812 24.3281 48.2812 23.8008C48.2812 23.3438 48.3926 22.916 48.6152 22.5176C48.8496 22.1191 49.1719 21.7676 49.582 21.4629C50.0039 21.1582 50.502 20.918 51.0762 20.7422C51.6621 20.5664 52.3008 20.4785 52.9922 20.4785C55.0312 20.4785 57.4453 21.2285 60.2344 22.7285C60.75 22.084 61.1719 21.3574 61.5 20.5488C61.8633 19.6465 62.1445 18.7207 62.3438 17.7715C62.5547 16.8105 62.7363 15.8555 62.8887 14.9062C63.0527 13.957 63.2168 13.0312 63.3809 12.1289C63.5566 11.2266 63.791 10.377 64.084 9.58008C64.3887 8.7832 64.7812 8.05664 65.2617 7.40039C65.7539 6.73242 66.3926 6.16406 67.1777 5.69531C67.2949 5.63672 67.4004 5.60742 67.4941 5.60742C67.6582 5.60742 67.8105 5.66602 67.9512 5.7832C68.1035 5.90039 68.1797 6.06445 68.1797 6.27539C68.1797 6.52148 68.0684 6.70898 67.8457 6.83789C67.2246 7.20117 66.7148 7.6582 66.3164 8.20898C65.9297 8.74805 65.6074 9.35742 65.3496 10.0371C65.0918 10.7168 64.8867 11.4492 64.7344 12.2344C64.582 13.0195 64.4355 13.8398 64.2949 14.6953C64.1777 15.3984 64.0488 16.1367 63.9082 16.9102C63.7676 17.6719 63.5918 18.4336 63.3809 19.1953C63.1699 19.9453 62.9004 20.6836 62.5723 21.4102C62.2559 22.125 61.8633 22.7871 61.3945 23.3965C61.418 23.4082 61.4297 23.4199 61.4297 23.4316C61.4414 23.4316 61.459 23.4375 61.4824 23.4492C62.9707 24.3398 64.5176 25.0137 66.123 25.4707C67.7285 25.9277 69.2988 26.1562 70.834 26.1562C72.498 26.1562 73.9863 25.8809 75.2988 25.3301C76.623 24.7793 77.7422 24.041 78.6562 23.1152C79.5703 22.1777 80.2676 21.0879 80.748 19.8457C81.2285 18.6035 81.4688 17.291 81.4688 15.9082C81.4688 14.502 81.2344 13.1953 80.7656 11.9883C80.2969 10.7695 79.6523 9.66211 78.832 8.66602C78.0234 7.66992 77.0566 6.78516 75.9316 6.01172C74.8184 5.23828 73.6113 4.59375 72.3105 4.07812C71.0215 3.55078 69.6621 3.15234 68.2324 2.88281C66.8145 2.60156 65.3906 2.46094 63.9609 2.46094C62.0391 2.46094 60.2812 2.625 58.6875 2.95312C57.1055 3.26953 55.7402 3.73828 54.5918 4.35938C53.4551 4.98047 52.5703 5.74219 51.9375 6.64453C51.3047 7.54687 50.9883 8.57227 50.9883 9.7207C50.9883 10.377 51.082 10.957 51.2695 11.4609C51.4688 11.9648 51.7148 12.4043 52.0078 12.7793C52.3125 13.1426 52.6406 13.4531 52.9922 13.7109C53.3438 13.9688 53.6719 14.1797 53.9766 14.3438C54.2812 14.4961 54.5391 14.6074 54.75 14.6777C54.9727 14.748 55.1016 14.7891 55.1367 14.8008C55.2891 14.8359 55.4062 14.918 55.4883 15.0469C55.582 15.1641 55.6289 15.2988 55.6289 15.4512C55.6289 15.6504 55.5586 15.8027 55.418 15.9082C55.2773 16.0137 55.125 16.0664 54.9609 16.0664C54.7266 16.0664 54.4336 16.0137 54.082 15.9082C53.7305 15.791 53.3555 15.6211 52.957 15.3984C52.5703 15.1641 52.1777 14.877 51.7793 14.5371C51.3926 14.1855 51.041 13.7754 50.7246 13.3066C50.4082 12.8379 50.1504 12.3047 49.9512 11.707C49.7637 11.1094 49.6699 10.4473 49.6699 9.7207C49.6699 8.39648 50.0039 7.20703 50.6719 6.15234C51.3516 5.08594 52.3066 4.18359 53.5371 3.44531C54.7676 2.70703 56.2383 2.13867 57.9492 1.74023C59.6719 1.3418 61.582 1.14258 63.6797 1.14258ZM59.2852 23.7305C58.0664 23.0859 56.9355 22.5996 55.8926 22.2715C54.8496 21.9434 53.8945 21.7793 53.0273 21.7793C52.5352 21.7793 52.0781 21.8379 51.6562 21.9551C51.2461 22.0605 50.8887 22.207 50.584 22.3945C50.2793 22.582 50.0391 22.7988 49.8633 23.0449C49.6875 23.291 49.5996 23.5488 49.5996 23.8184C49.5996 24.0762 49.6758 24.334 49.8281 24.5918C49.9922 24.8496 50.2324 25.0781 50.5488 25.2773C50.877 25.4766 51.2812 25.6406 51.7617 25.7695C52.2422 25.8984 52.8047 25.9629 53.4492 25.9629C54.5508 25.9629 55.5996 25.7695 56.5957 25.3828C57.6035 24.9844 58.5 24.4336 59.2852 23.7305ZM86.8125 25.0664C87.0586 25.4062 87.375 25.6816 87.7617 25.8926C88.1484 26.0918 88.623 26.1914 89.1855 26.1914C89.7598 26.1914 90.2812 26.0566 90.75 25.7871C91.2188 25.5059 91.6465 25.1426 92.0332 24.6973C92.4199 24.252 92.7656 23.7539 93.0703 23.2031C93.375 22.6523 93.6504 22.1016 93.8965 21.5508C93.9551 21.4219 94.0371 21.3281 94.1426 21.2695C94.248 21.1992 94.3652 21.1641 94.4941 21.1641C94.6934 21.1641 94.8516 21.2344 94.9688 21.375C95.0977 21.5156 95.1621 21.668 95.1621 21.832C95.1621 21.8906 95.1562 21.9434 95.1445 21.9902C95.1328 22.0254 95.1152 22.0664 95.0918 22.1133C94.2832 23.8945 93.3984 25.2363 92.4375 26.1387C91.4883 27.041 90.4102 27.5039 89.2031 27.5273C88.4297 27.5273 87.7617 27.375 87.1992 27.0703C86.6367 26.7773 86.1738 26.3965 85.8105 25.9277C85.4473 25.4473 85.1777 24.9082 85.002 24.3105C84.8262 23.7129 84.7383 23.1152 84.7383 22.5176C84.7383 21.9199 84.8086 21.3691 84.9492 20.8652C85.1016 20.3613 85.3125 19.9219 85.582 19.5469C85.8633 19.1719 86.1914 18.8789 86.5664 18.668C86.9531 18.457 87.375 18.3516 87.832 18.3516C88.1016 18.3516 88.3652 18.4102 88.623 18.5273C88.8926 18.6328 89.1328 18.791 89.3438 19.002C89.5547 19.2012 89.7246 19.4473 89.8535 19.7402C89.9824 20.0332 90.0469 20.3672 90.0469 20.7422C90.0469 21.2227 89.9648 21.6738 89.8008 22.0957C89.6367 22.5176 89.4082 22.9102 89.1152 23.2734C88.834 23.6367 88.4941 23.9707 88.0957 24.2754C87.6973 24.5801 87.2695 24.8438 86.8125 25.0664ZM86.2852 23.9238C86.6484 23.7715 86.9766 23.5781 87.2695 23.3438C87.5742 23.1094 87.832 22.8516 88.043 22.5703C88.2539 22.2891 88.418 21.9961 88.5352 21.6914C88.6523 21.375 88.7109 21.0586 88.7109 20.7422C88.7109 20.3906 88.623 20.127 88.4473 19.9512C88.2715 19.7637 88.0664 19.6699 87.832 19.6699C87.5156 19.6699 87.2461 19.7578 87.0234 19.9336C86.8008 20.1094 86.6191 20.3379 86.4785 20.6191C86.3379 20.9004 86.2324 21.2168 86.1621 21.5684C86.1035 21.9082 86.0742 22.248 86.0742 22.5879C86.0742 22.7988 86.0918 23.0215 86.127 23.2559C86.1738 23.4902 86.2266 23.7129 86.2852 23.9238ZM103.916 22.1309C103.787 22.4004 103.623 22.7227 103.424 23.0977C103.236 23.4609 103.02 23.8418 102.773 24.2402C102.527 24.6387 102.252 25.0371 101.947 25.4355C101.643 25.8223 101.309 26.1738 100.945 26.4902C100.594 26.7949 100.213 27.041 99.8027 27.2285C99.4043 27.4277 98.9766 27.5273 98.5195 27.5273C97.8164 27.5273 97.2129 27.3105 96.709 26.877C96.2051 26.4434 95.7773 25.875 95.4258 25.1719C95.0742 24.4688 94.7871 23.6719 94.5645 22.7812C94.3535 21.8789 94.1895 20.9648 94.0723 20.0391C93.9551 19.1016 93.873 18.1934 93.8262 17.3145C93.791 16.4355 93.7734 15.6562 93.7734 14.9766C93.7734 13.9922 93.8027 12.9727 93.8613 11.918C93.9316 10.8633 94.0371 9.83203 94.1777 8.82422C94.3184 7.81641 94.4941 6.86133 94.7051 5.95898C94.9277 5.05664 95.1855 4.26563 95.4785 3.58594C95.7832 2.90625 96.1289 2.36719 96.5156 1.96875C96.9023 1.57031 97.3418 1.37109 97.834 1.37109C98.2207 1.37109 98.5664 1.46484 98.8711 1.65234C99.1875 1.82812 99.4512 2.12109 99.6621 2.53125C99.873 2.94141 100.037 3.47461 100.154 4.13086C100.271 4.78711 100.33 5.58984 100.33 6.53906C100.33 7.71094 100.207 8.92383 99.9609 10.1777C99.7148 11.4199 99.3809 12.6738 98.959 13.9395C98.5371 15.2051 98.0391 16.4707 97.4648 17.7363C96.8906 18.9902 96.2754 20.2148 95.6191 21.4102C95.9121 22.8984 96.3047 24.0703 96.7969 24.9258C97.2891 25.7695 97.8809 26.1914 98.5723 26.1914C99.041 26.1914 99.4922 26.0098 99.9258 25.6465C100.359 25.2715 100.758 24.832 101.121 24.3281C101.484 23.8242 101.801 23.3145 102.07 22.7988C102.352 22.2715 102.568 21.8496 102.721 21.5332C102.779 21.416 102.861 21.3281 102.967 21.2695C103.072 21.1992 103.189 21.1641 103.318 21.1641C103.518 21.1641 103.676 21.2344 103.793 21.375C103.922 21.5156 103.986 21.6738 103.986 21.8496C103.986 21.9199 103.963 22.0137 103.916 22.1309ZM95.1094 15.0645C95.1094 15.8145 95.127 16.5352 95.1621 17.2266C95.1973 17.918 95.2441 18.5801 95.3027 19.2129C95.7949 18.2637 96.2637 17.2559 96.709 16.1895C97.1543 15.1113 97.5469 14.0273 97.8867 12.9375C98.2266 11.8359 98.4961 10.7461 98.6953 9.66797C98.9062 8.57812 99.0117 7.54102 99.0117 6.55664C99.0117 5.17383 98.9004 4.18359 98.6777 3.58594C98.4551 2.98828 98.1562 2.68945 97.7812 2.68945C97.5352 2.68945 97.2949 2.85938 97.0605 3.19922C96.8379 3.53906 96.627 4.00195 96.4277 4.58789C96.2285 5.17383 96.0469 5.86523 95.8828 6.66211C95.7188 7.45898 95.5781 8.31445 95.4609 9.22852C95.3555 10.1426 95.2676 11.0977 95.1973 12.0938C95.1387 13.0898 95.1094 14.0801 95.1094 15.0645ZM105.604 13.2012C105.604 13.6465 105.445 14.0273 105.129 14.3438C104.824 14.6484 104.449 14.8008 104.004 14.8008C103.559 14.8008 103.178 14.6484 102.861 14.3438C102.557 14.0273 102.404 13.6465 102.404 13.2012C102.404 12.9785 102.445 12.7734 102.527 12.5859C102.609 12.3867 102.721 12.2168 102.861 12.0762C103.014 11.9238 103.184 11.8066 103.371 11.7246C103.57 11.6426 103.781 11.6016 104.004 11.6016C104.227 11.6016 104.432 11.6426 104.619 11.7246C104.818 11.8066 104.988 11.9238 105.129 12.0762C105.281 12.2168 105.398 12.3867 105.48 12.5859C105.562 12.7734 105.604 12.9785 105.604 13.2012ZM102.756 23.502C102.756 21.8145 102.861 20.1328 103.072 18.457C103.096 18.293 103.166 18.1523 103.283 18.0352C103.412 17.9062 103.576 17.8418 103.775 17.8418C103.951 17.8418 104.098 17.9121 104.215 18.0527C104.332 18.1816 104.391 18.334 104.391 18.5098C104.391 18.5801 104.373 18.791 104.338 19.1426C104.314 19.4941 104.279 19.916 104.232 20.4082C104.197 20.8887 104.162 21.4043 104.127 21.9551C104.104 22.4941 104.092 22.9922 104.092 23.4492C104.092 24.0703 104.15 24.5742 104.268 24.9609C104.396 25.3359 104.555 25.6289 104.742 25.8398C104.941 26.0508 105.146 26.1914 105.357 26.2617C105.58 26.332 105.791 26.3672 105.99 26.3672C106.318 26.3672 106.658 26.25 107.01 26.0156C107.361 25.7812 107.719 25.4531 108.082 25.0312C108.457 24.6094 108.832 24.1055 109.207 23.5195C109.582 22.9219 109.951 22.2598 110.314 21.5332C110.373 21.416 110.455 21.3281 110.561 21.2695C110.666 21.1992 110.783 21.1641 110.912 21.1641C111.1 21.1641 111.252 21.2344 111.369 21.375C111.498 21.5156 111.562 21.668 111.562 21.832C111.562 21.9492 111.539 22.0488 111.492 22.1309C111.352 22.4004 111.176 22.7285 110.965 23.1152C110.754 23.502 110.514 23.9004 110.244 24.3105C109.975 24.7207 109.676 25.1309 109.348 25.541C109.031 25.9395 108.691 26.3027 108.328 26.6309C107.965 26.9473 107.584 27.2051 107.186 27.4043C106.787 27.6035 106.383 27.7031 105.973 27.7031C105.445 27.7031 104.982 27.5918 104.584 27.3691C104.186 27.1465 103.846 26.8477 103.564 26.4727C103.295 26.0977 103.09 25.6582 102.949 25.1543C102.82 24.6387 102.756 24.0879 102.756 23.502ZM104.619 13.2012C104.619 13.0371 104.555 12.8965 104.426 12.7793C104.309 12.6504 104.168 12.5859 104.004 12.5859C103.84 12.5859 103.699 12.6504 103.582 12.7793C103.465 12.8965 103.406 13.0371 103.406 13.2012C103.406 13.3652 103.465 13.5059 103.582 13.623C103.699 13.7402 103.84 13.7988 104.004 13.7988C104.168 13.7988 104.309 13.7402 104.426 13.623C104.555 13.5059 104.619 13.3652 104.619 13.2012ZM121.793 22.1309C121.723 22.2598 121.6 22.4941 121.424 22.834C121.26 23.1738 121.031 23.5605 120.738 23.9941C120.457 24.416 120.117 24.8555 119.719 25.3125C119.32 25.7695 118.863 26.1914 118.348 26.5781C117.832 26.9531 117.252 27.2637 116.607 27.5098C115.975 27.7559 115.283 27.8789 114.533 27.8789C113.865 27.8789 113.273 27.7559 112.758 27.5098C112.242 27.2754 111.803 26.9414 111.439 26.5078C111.076 26.0625 110.801 25.541 110.613 24.9434C110.426 24.3457 110.332 23.6836 110.332 22.957C110.332 22.2539 110.432 21.5977 110.631 20.9883C110.83 20.3672 111.1 19.8281 111.439 19.3711C111.791 18.9141 112.195 18.5566 112.652 18.2988C113.109 18.0293 113.596 17.8945 114.111 17.8945C114.498 17.8945 114.85 17.9648 115.166 18.1055C115.482 18.2344 115.746 18.4102 115.957 18.6328C116.18 18.8555 116.35 19.1016 116.467 19.3711C116.596 19.6406 116.66 19.9102 116.66 20.1797C116.66 20.4375 116.625 20.6777 116.555 20.9004C116.496 21.123 116.414 21.3223 116.309 21.498C116.215 21.6621 116.104 21.7969 115.975 21.9023C115.846 21.9961 115.717 22.043 115.588 22.043C115.389 22.043 115.225 21.9785 115.096 21.8496C114.979 21.7207 114.92 21.5625 114.92 21.375C114.92 21.2812 114.938 21.1992 114.973 21.1289C115.02 21.0586 115.066 20.9883 115.113 20.918C115.172 20.8359 115.219 20.7422 115.254 20.6367C115.301 20.5195 115.324 20.373 115.324 20.1973C115.324 19.9512 115.207 19.7285 114.973 19.5293C114.75 19.3301 114.463 19.2305 114.111 19.2305C113.783 19.2305 113.467 19.3301 113.162 19.5293C112.869 19.7285 112.611 19.998 112.389 20.3379C112.166 20.666 111.984 21.0586 111.844 21.5156C111.715 21.9609 111.65 22.4355 111.65 22.9395C111.65 23.4199 111.709 23.877 111.826 24.3105C111.943 24.7441 112.119 25.1309 112.354 25.4707C112.588 25.7988 112.881 26.0625 113.232 26.2617C113.596 26.4609 114.023 26.5605 114.516 26.5605C115.148 26.5605 115.734 26.4492 116.273 26.2266C116.812 25.9922 117.305 25.6992 117.75 25.3477C118.195 24.9961 118.588 24.6152 118.928 24.2051C119.268 23.7832 119.555 23.3906 119.789 23.0273C120.035 22.6523 120.223 22.3301 120.352 22.0605C120.492 21.7793 120.574 21.6035 120.598 21.5332C120.645 21.416 120.721 21.3281 120.826 21.2695C120.943 21.1992 121.066 21.1641 121.195 21.1641C121.395 21.1641 121.553 21.2344 121.67 21.375C121.799 21.5156 121.863 21.6738 121.863 21.8496C121.863 21.9199 121.84 22.0137 121.793 22.1309ZM123.463 13.2012C123.463 13.6465 123.305 14.0273 122.988 14.3438C122.684 14.6484 122.309 14.8008 121.863 14.8008C121.418 14.8008 121.037 14.6484 120.721 14.3438C120.416 14.0273 120.264 13.6465 120.264 13.2012C120.264 12.9785 120.305 12.7734 120.387 12.5859C120.469 12.3867 120.58 12.2168 120.721 12.0762C120.873 11.9238 121.043 11.8066 121.23 11.7246C121.43 11.6426 121.641 11.6016 121.863 11.6016C122.086 11.6016 122.291 11.6426 122.479 11.7246C122.678 11.8066 122.848 11.9238 122.988 12.0762C123.141 12.2168 123.258 12.3867 123.34 12.5859C123.422 12.7734 123.463 12.9785 123.463 13.2012ZM120.615 23.502C120.615 21.8145 120.721 20.1328 120.932 18.457C120.955 18.293 121.025 18.1523 121.143 18.0352C121.271 17.9062 121.436 17.8418 121.635 17.8418C121.811 17.8418 121.957 17.9121 122.074 18.0527C122.191 18.1816 122.25 18.334 122.25 18.5098C122.25 18.5801 122.232 18.791 122.197 19.1426C122.174 19.4941 122.139 19.916 122.092 20.4082C122.057 20.8887 122.021 21.4043 121.986 21.9551C121.963 22.4941 121.951 22.9922 121.951 23.4492C121.951 24.0703 122.01 24.5742 122.127 24.9609C122.256 25.3359 122.414 25.6289 122.602 25.8398C122.801 26.0508 123.006 26.1914 123.217 26.2617C123.439 26.332 123.65 26.3672 123.85 26.3672C124.178 26.3672 124.518 26.25 124.869 26.0156C125.221 25.7812 125.578 25.4531 125.941 25.0312C126.316 24.6094 126.691 24.1055 127.066 23.5195C127.441 22.9219 127.811 22.2598 128.174 21.5332C128.232 21.416 128.314 21.3281 128.42 21.2695C128.525 21.1992 128.643 21.1641 128.771 21.1641C128.959 21.1641 129.111 21.2344 129.229 21.375C129.357 21.5156 129.422 21.668 129.422 21.832C129.422 21.9492 129.398 22.0488 129.352 22.1309C129.211 22.4004 129.035 22.7285 128.824 23.1152C128.613 23.502 128.373 23.9004 128.104 24.3105C127.834 24.7207 127.535 25.1309 127.207 25.541C126.891 25.9395 126.551 26.3027 126.188 26.6309C125.824 26.9473 125.443 27.2051 125.045 27.4043C124.646 27.6035 124.242 27.7031 123.832 27.7031C123.305 27.7031 122.842 27.5918 122.443 27.3691C122.045 27.1465 121.705 26.8477 121.424 26.4727C121.154 26.0977 120.949 25.6582 120.809 25.1543C120.68 24.6387 120.615 24.0879 120.615 23.502ZM122.479 13.2012C122.479 13.0371 122.414 12.8965 122.285 12.7793C122.168 12.6504 122.027 12.5859 121.863 12.5859C121.699 12.5859 121.559 12.6504 121.441 12.7793C121.324 12.8965 121.266 13.0371 121.266 13.2012C121.266 13.3652 121.324 13.5059 121.441 13.623C121.559 13.7402 121.699 13.7988 121.863 13.7988C122.027 13.7988 122.168 13.7402 122.285 13.623C122.414 13.5059 122.479 13.3652 122.479 13.2012ZM136.26 25.0664C135.967 25.0664 135.709 25.043 135.486 24.9961C135.311 25.3477 135.1 25.6758 134.854 25.9805C134.607 26.2734 134.32 26.5312 133.992 26.7539C133.676 26.9766 133.318 27.1523 132.92 27.2812C132.521 27.4102 132.088 27.4746 131.619 27.4746C131.068 27.4746 130.564 27.375 130.107 27.1758C129.65 26.9883 129.252 26.7246 128.912 26.3848C128.572 26.0332 128.309 25.6172 128.121 25.1367C127.934 24.6445 127.84 24.1055 127.84 23.5195C127.84 22.7695 127.975 22.1191 128.244 21.5684C128.514 21.0059 128.824 20.543 129.176 20.1797C129.527 19.8047 129.879 19.5293 130.23 19.3535C130.582 19.166 130.846 19.0723 131.021 19.0723C131.221 19.0723 131.367 19.125 131.461 19.2305C131.566 19.3359 131.619 19.4766 131.619 19.6523C131.619 19.8516 131.555 20.0039 131.426 20.1094C131.309 20.2031 131.156 20.2969 130.969 20.3906C130.781 20.4844 130.582 20.6191 130.371 20.7949C130.16 20.959 129.961 21.1699 129.773 21.4277C129.598 21.6855 129.451 21.9902 129.334 22.3418C129.217 22.6934 129.158 23.0859 129.158 23.5195C129.158 23.9062 129.217 24.2695 129.334 24.6094C129.451 24.9375 129.621 25.2246 129.844 25.4707C130.066 25.7051 130.33 25.8926 130.635 26.0332C130.939 26.1621 131.279 26.2266 131.654 26.2266C132.322 26.2266 132.873 26.0742 133.307 25.7695C133.752 25.4531 134.092 25.0547 134.326 24.5742C133.635 24.2109 133.066 23.6953 132.621 23.0273C132.176 22.3594 131.953 21.6094 131.953 20.7773C131.953 20.1094 132.111 19.5645 132.428 19.1426C132.756 18.7207 133.184 18.5098 133.711 18.5098C134.027 18.5098 134.326 18.5859 134.607 18.7383C134.889 18.8906 135.135 19.1309 135.346 19.459C135.568 19.7871 135.744 20.209 135.873 20.7246C136.002 21.2402 136.066 21.8555 136.066 22.5703C136.066 22.9453 136.02 23.3379 135.926 23.748C135.996 23.7598 136.066 23.7656 136.137 23.7656C136.207 23.7656 136.283 23.7656 136.365 23.7656C136.764 23.7656 137.121 23.7188 137.438 23.625C137.754 23.5312 138.041 23.3906 138.299 23.2031C138.557 23.0156 138.785 22.7754 138.984 22.4824C139.195 22.1895 139.395 21.8496 139.582 21.4629C139.617 21.3926 139.693 21.3281 139.811 21.2695C139.928 21.1992 140.045 21.1641 140.162 21.1641C140.314 21.1641 140.455 21.2285 140.584 21.3574C140.725 21.4746 140.795 21.6328 140.795 21.832C140.795 21.9258 140.771 22.0312 140.725 22.1484C140.678 22.2539 140.631 22.3535 140.584 22.4473C140.385 22.7988 140.15 23.1387 139.881 23.4668C139.623 23.7832 139.312 24.0645 138.949 24.3105C138.598 24.5449 138.199 24.7324 137.754 24.873C137.309 25.0137 136.811 25.0781 136.26 25.0664ZM133.254 20.6367C133.254 20.8594 133.283 21.0938 133.342 21.3398C133.4 21.5859 133.488 21.832 133.605 22.0781C133.734 22.3125 133.887 22.541 134.062 22.7637C134.25 22.9746 134.467 23.1562 134.713 23.3086C134.748 23.0625 134.766 22.8223 134.766 22.5879C134.766 22.2715 134.742 21.9492 134.695 21.6211C134.648 21.293 134.578 20.9941 134.484 20.7246C134.402 20.4434 134.297 20.2207 134.168 20.0566C134.039 19.8809 133.887 19.793 133.711 19.793C133.641 19.793 133.547 19.8457 133.43 19.9512C133.312 20.0566 133.254 20.2852 133.254 20.6367ZM145.383 25.0312C144.973 25.6992 144.492 26.2266 143.941 26.6133C143.402 27 142.857 27.1934 142.307 27.1934C141.861 27.1934 141.463 27.1113 141.111 26.9473C140.76 26.7832 140.455 26.5547 140.197 26.2617C139.939 25.957 139.74 25.5938 139.6 25.1719C139.471 24.75 139.406 24.2754 139.406 23.748C139.406 22.9277 139.482 22.2012 139.635 21.5684C139.799 20.9355 139.975 20.4082 140.162 19.9863C140.35 19.5527 140.525 19.2246 140.689 19.002C140.854 18.7793 140.936 18.668 140.936 18.668C140.994 18.5977 141.064 18.5449 141.146 18.5098C141.24 18.4746 141.334 18.457 141.428 18.457C141.615 18.457 141.768 18.5273 141.885 18.668C142.014 18.7969 142.078 18.9492 142.078 19.125C142.078 19.1953 142.061 19.2656 142.025 19.3359C142.002 19.4062 141.973 19.4766 141.938 19.5469C141.879 19.6523 141.785 19.8164 141.656 20.0391C141.527 20.25 141.393 20.5312 141.252 20.8828C141.111 21.2344 140.988 21.6504 140.883 22.1309C140.777 22.5996 140.725 23.1387 140.725 23.748C140.725 24.4395 140.859 24.9668 141.129 25.3301C141.41 25.6816 141.803 25.8574 142.307 25.8574C142.518 25.8574 142.758 25.793 143.027 25.6641C143.309 25.5234 143.578 25.3125 143.836 25.0312C144.105 24.75 144.34 24.3926 144.539 23.959C144.738 23.5254 144.867 23.0156 144.926 22.4297L145.189 19.4062C145.213 19.2305 145.289 19.084 145.418 18.9668C145.547 18.8496 145.699 18.791 145.875 18.791C146.074 18.791 146.232 18.8672 146.35 19.0195C146.467 19.1602 146.525 19.3242 146.525 19.5117L146.297 22.4297C146.273 22.6758 146.279 22.998 146.314 23.3965C146.361 23.7949 146.449 24.1875 146.578 24.5742C146.707 24.9609 146.9 25.2949 147.158 25.5762C147.416 25.8457 147.756 25.9805 148.178 25.9805C148.482 25.9805 148.781 25.9043 149.074 25.752C149.367 25.5879 149.648 25.377 149.918 25.1191C150.188 24.8613 150.434 24.5742 150.656 24.2578C150.891 23.9297 151.102 23.6016 151.289 23.2734C151.488 22.9453 151.658 22.6348 151.799 22.3418C151.939 22.0371 152.057 21.7793 152.15 21.5684C152.209 21.4395 152.291 21.3398 152.396 21.2695C152.502 21.1992 152.619 21.1641 152.748 21.1641C152.959 21.1641 153.123 21.2344 153.24 21.375C153.357 21.5156 153.416 21.668 153.416 21.832C153.416 21.9258 153.398 22.0137 153.363 22.0957C153.316 22.1895 153.223 22.3887 153.082 22.6934C152.953 22.9863 152.777 23.3262 152.555 23.7129C152.344 24.0879 152.086 24.4863 151.781 24.9082C151.477 25.3301 151.137 25.7227 150.762 26.0859C150.387 26.4375 149.977 26.7305 149.531 26.9648C149.098 27.1875 148.629 27.2988 148.125 27.2988C147.434 27.2988 146.859 27.1055 146.402 26.7188C145.945 26.3203 145.605 25.7578 145.383 25.0312ZM154.119 20.4961C154.049 20.6836 153.961 20.8945 153.855 21.1289C153.762 21.3633 153.65 21.6094 153.521 21.8672C153.416 22.0664 153.305 22.2246 153.188 22.3418C153.082 22.4473 152.941 22.5 152.766 22.5C152.566 22.5 152.408 22.4414 152.291 22.3242C152.174 22.1953 152.115 22.0488 152.115 21.8848C152.115 21.8262 152.121 21.7793 152.133 21.7441C152.145 21.6973 152.174 21.627 152.221 21.5332C152.525 20.9473 152.748 20.4375 152.889 20.0039C153.041 19.5586 153.164 19.0957 153.258 18.6152C153.176 18.3457 153.117 18.1172 153.082 17.9297C153.047 17.7422 153.029 17.5488 153.029 17.3496C153.029 16.9629 153.111 16.6523 153.275 16.418C153.439 16.1719 153.668 16.0488 153.961 16.0488C154.23 16.0488 154.441 16.166 154.594 16.4004C154.758 16.6348 154.84 16.9219 154.84 17.2617C154.84 17.4492 154.822 17.6367 154.787 17.8242C154.752 18.0117 154.705 18.2461 154.646 18.5273C154.916 19.1953 155.186 19.7871 155.455 20.3027C155.725 20.8184 155.965 21.293 156.176 21.7266C156.387 22.1484 156.557 22.5469 156.686 22.9219C156.826 23.2969 156.896 23.6719 156.896 24.0469C156.896 24.5391 156.797 25.0078 156.598 25.4531C156.398 25.8984 156.07 26.2734 155.613 26.5781C155.672 26.5898 155.73 26.5957 155.789 26.5957C155.848 26.5957 155.906 26.5957 155.965 26.5957C156.633 26.5957 157.248 26.4434 157.811 26.1387C158.373 25.834 158.877 25.4414 159.322 24.9609C159.779 24.4688 160.184 23.9297 160.535 23.3438C160.887 22.7461 161.191 22.1543 161.449 21.5684C161.566 21.2988 161.73 21.1641 161.941 21.1641C162.141 21.1641 162.293 21.2344 162.398 21.375C162.516 21.5156 162.574 21.668 162.574 21.832C162.574 21.9258 162.557 22.0137 162.521 22.0957C162.393 22.4121 162.223 22.7754 162.012 23.1855C161.812 23.584 161.566 24 161.273 24.4336C160.992 24.8555 160.664 25.2715 160.289 25.6816C159.914 26.0918 159.492 26.4609 159.023 26.7891C158.566 27.1055 158.062 27.3574 157.512 27.5449C156.961 27.7441 156.357 27.8438 155.701 27.8438C154.916 27.8438 154.184 27.7031 153.504 27.4219C152.836 27.1523 152.291 26.7012 151.869 26.0684C151.799 25.9629 151.764 25.8516 151.764 25.7344C151.764 25.5586 151.828 25.4062 151.957 25.2773C152.098 25.1367 152.256 25.0664 152.432 25.0664C152.619 25.0664 152.777 25.1309 152.906 25.2598C152.918 25.2832 152.959 25.3242 153.029 25.3828C153.1 25.4297 153.182 25.4883 153.275 25.5586C153.381 25.6172 153.498 25.6699 153.627 25.7168C153.768 25.7637 153.908 25.7871 154.049 25.7871C154.33 25.7871 154.564 25.7285 154.752 25.6113C154.951 25.4941 155.109 25.3535 155.227 25.1895C155.344 25.0137 155.426 24.832 155.473 24.6445C155.531 24.4453 155.561 24.2754 155.561 24.1348C155.561 23.8418 155.514 23.5488 155.42 23.2559C155.326 22.9629 155.203 22.6699 155.051 22.377C154.91 22.084 154.752 21.7852 154.576 21.4805C154.412 21.1641 154.26 20.8359 154.119 20.4961Z" fill="black"/>
</svg>
